HIERARCHY
ROOT Hips
{
  OFFSET 51.5836 93.8138 7.64105
  CHANNELS 6 Xposition Yposition Zposition Zrotation Xrotation Yrotation
  JOINT spine
  {
    OFFSET 0 7.4756 0.429885
    CHANNELS 3 Zrotation Xrotation Yrotation
    JOINT spine1
    {
      OFFSET 0 9.92301 0
      CHANNELS 3 Zrotation Xrotation Yrotation
      JOINT spine2
      {
        OFFSET 0 9.50804 0
        CHANNELS 3 Zrotation Xrotation Yrotation
        JOINT Neck
        {
          OFFSET 0 24.4111 1.16384
          CHANNELS 3 Zrotation Xrotation Yrotation
          JOINT Head
          {
            OFFSET 0 7.37523 0
            CHANNELS 3 Zrotation Xrotation Yrotation
            End Site
            {
              OFFSET 0 17.8522 -5.88741
            }
          }
        }
        JOINT RightShoulder
        {
          OFFSET -4.00356 10.2679 -0.557468
          CHANNELS 3 Zrotation Xrotation Yrotation
          JOINT RightArm
          {
            OFFSET 0 13.4673 0
            CHANNELS 3 Zrotation Xrotation Yrotation
            JOINT RightArmRoll
            {
              OFFSET 0 6.79858 0
              CHANNELS 3 Zrotation Xrotation Yrotation
              JOINT RightForeArm
              {
                OFFSET 0 19.8018 0
                CHANNELS 3 Zrotation Xrotation Yrotation
                JOINT RightForeArmRoll
                {
                  OFFSET 0 7.62906 0
                  CHANNELS 3 Zrotation Xrotation Yrotation
                  JOINT RightHand
                  {
                    OFFSET 0 15.3098 0
                    CHANNELS 3 Zrotation Xrotation Yrotation
                    End Site
                    {
                      OFFSET 0 0 0
                    }
                  }
                }
              }
            }
          }
        }
        JOINT LeftShoulder
        {
          OFFSET 4.00356 10.2679 -0.557468
          CHANNELS 3 Zrotation Xrotation Yrotation
          JOINT LeftArm
          {
            OFFSET 0 13.4673 0
            CHANNELS 3 Zrotation Xrotation Yrotation
            JOINT LeftArmRoll
            {
              OFFSET 0 6.79858 0
              CHANNELS 3 Zrotation Xrotation Yrotation
              JOINT LeftForeArm
              {
                OFFSET 0 19.8018 0
                CHANNELS 3 Zrotation Xrotation Yrotation
                JOINT LeftForeArmRoll
                {
                  OFFSET 0 7.62906 0
                  CHANNELS 3 Zrotation Xrotation Yrotation
                  JOINT LeftHand
                  {
                    OFFSET 0 15.3098 0
                    CHANNELS 3 Zrotation Xrotation Yrotation
                    End Site
                    {
                      OFFSET 0 0 0
                    }
                  }
                }
              }
            }
          }
        }
      }
    }
  }
  JOINT RightUpLeg
  {
    OFFSET -6.62609 -1.21505 -1.01927
    CHANNELS 3 Zrotation Xrotation Yrotation
    JOINT RightUpLegRoll
    {
      OFFSET 0 17.9517 0
      CHANNELS 3 Zrotation Xrotation Yrotation
      JOINT RightLeg
      {
        OFFSET 0 -22.2304 0
        CHANNELS 3 Zrotation Xrotation Yrotation
        JOINT RightLegRoll
        {
          OFFSET 0 22.3032 0
          CHANNELS 3 Zrotation Xrotation Yrotation
          JOINT RightFoot
          {
            OFFSET 0 18.5636 0
            CHANNELS 3 Zrotation Xrotation Yrotation
            JOINT RightToeBase
            {
              OFFSET 0 15.5183 0
              CHANNELS 3 Zrotation Xrotation Yrotation
              End Site
              {
                OFFSET 0.00657761 7.51539 -0.866263
              }
            }
          }
        }
      }
    }
  }
  JOINT LeftUpLeg
  {
    OFFSET 6.62609 -1.21505 -1.01927
    CHANNELS 3 Zrotation Xrotation Yrotation
    JOINT LeftUpLegRoll
    {
      OFFSET 0 17.9518 0
      CHANNELS 3 Zrotation Xrotation Yrotation
      JOINT LeftLeg
      {
        OFFSET 0 22.2303 0
        CHANNELS 3 Zrotation Xrotation Yrotation
        JOINT LeftLegRoll
        {
          OFFSET 0 22.5093 0
          CHANNELS 3 Zrotation Xrotation Yrotation
          JOINT LeftFoot
          {
            OFFSET 0 18.3575 0
            CHANNELS 3 Zrotation Xrotation Yrotation
            JOINT LeftToeBase
            {
              OFFSET 0 15.5183 0
              CHANNELS 3 Zrotation Xrotation Yrotation
              End Site
              {
                OFFSET -0.029478 7.51538 -0.866263
              }
            }
          }
        }
      }
    }
  }
}
MOTION
Frames: 10
Frame Time: 0.00208333
54.0142 100.083 17.927 1.21519 -1.74449 -2.39555 -0.342374 -2.81159 0.286949 -0.672245 -1.62215 0.601899 -0.679359 0.0228182 0.613102 -1.98899 5.18431 -2.40006 2.81101 10.2543 -2.82612 15.415 -12.4689 -9.36282 54.9027 27.2491 55.4847 -7.12135e-008 -1.58371e-006 -8.20782e-006 -0.0736314 41.1038 -1.82397 8.01991e-008 2.26519e-006 -3.00872 8.02967 -4.95142 0.697669 -25.8933 -13.0867 9.59739 -60.1769 26.4952 -22.9828 1.06747e-005 -9.57252e-006 -5.13009e-006 -8.11065 45.1741 4.99305 -1.34734e-006 1.20896e-007 3 -8.03013 -4.95141 -0.697652 164.406 -0.241777 5.88325 180 7.01539e-015 178.888 -178.581 13.0373 179.111 2.80947e-006 -6.37821e-006 0.297444 -19.6599 69.1215 20.507 8.11969 24.9863 -3.75934 -171.386 -1.17941 -1.57745 4.54188e-006 -4.6773e-006 -1.44448 -1.14613 -10.9336 0.258322 -1.35904e-006 7.6551e-007 0.0248029 16.2321 63.9894 -16.7135 -8.11483 24.9349 3.84316 
53.9587 100.414 17.9855 1.21514 -1.80187 -2.36286 -0.355877 -2.80285 0.27982 -0.699524 -1.60471 0.588763 -0.70648 0.0402577 0.600426 -1.73847 5.11098 -2.45341 2.69137 10.3205 -2.83039 16.0741 -12.4842 -9.34794 54.9977 26.8335 55.0157 -7.12135e-008 -1.58371e-006 -8.20782e-006 -0.0495221 40.7864 -1.85265 8.01991e-008 2.26519e-006 -3.00872 8.02967 -4.95142 0.697669 -25.947 -13.0574 9.56035 -60.831 26.0806 -22.7337 1.06747e-005 -9.57252e-006 -5.13009e-006 -8.16423 45.1639 5.03737 -1.34734e-006 1.20896e-007 3 -8.03013 -4.95141 -0.697652 164.522 -0.4642 5.81512 180 7.01539e-015 178.889 -178.618 12.6393 179.138 2.80947e-006 -6.37821e-006 0.289478 -19.6527 69.1254 20.5078 8.12312 25.0315 -3.7096 -171.439 -1.4304 -1.45767 4.54188e-006 -4.6773e-006 -1.43341 -1.10211 -10.4125 0.243143 -1.35904e-006 7.65511e-007 0.0331038 16.2614 64.0531 -16.7503 -8.11911 24.9897 3.778 
53.9332 100.696 18.0172 1.21312 -1.85169 -2.33002 -0.368842 -2.79456 0.272171 -0.725739 -1.58816 0.574541 -0.732525 0.0568025 0.586644 -1.49268 5.0242 -2.50522 2.57409 10.393 -2.83427 16.7555 -12.4971 -9.33029 55.074 26.4072 54.5523 -7.12135e-008 -1.58371e-006 -8.20782e-006 -0.0218098 40.4797 -1.88155 8.01991e-008 2.26519e-006 -3.00872 8.02967 -4.95142 0.697669 -26.0133 -13.032 9.52689 -61.4619 25.6696 -22.5071 1.06747e-005 -9.57252e-006 -5.13009e-006 -8.21054 45.1365 5.07539 -1.34734e-006 1.20896e-007 3 -8.03013 -4.95141 -0.697652 164.641 -0.675947 5.74595 180 7.01539e-015 178.889 -178.656 12.2525 179.163 2.80947e-006 -6.37821e-006 0.281679 -19.6451 69.1284 20.5079 8.12664 25.079 -3.65736 -171.487 -1.66065 -1.34659 4.54188e-006 -4.6773e-006 -1.4221 -1.06399 -9.92049 0.227968 -1.35904e-006 7.65513e-007 0.0399921 16.295 64.1253 -16.7924 -8.12345 25.0471 3.70957 
54.0928 101.004 18.1031 1.20854 -1.89183 -2.29794 -0.381044 -2.78727 0.263953 -0.750442 -1.5736 0.559113 -0.757043 0.0713584 0.571632 -1.25329 4.92428 -2.55453 2.4597 10.472 -2.8373 17.4575 -12.5068 -9.30877 55.1355 25.97 54.0932 -7.12135e-008 -1.58371e-006 -8.20782e-006 0.0108917 40.191 -1.91113 8.01991e-008 2.26519e-006 -3.00872 8.02967 -4.95142 0.697669 -26.0931 -13.0105 9.49718 -62.0683 25.2631 -22.3031 1.06747e-005 -9.57252e-006 -5.13009e-006 -8.24857 45.0886 5.10603 -1.34734e-006 1.20896e-007 3 -8.03013 -4.95141 -0.697652 164.764 -0.874785 5.67569 180 7.01539e-015 178.89 -178.694 11.8769 179.187 2.80947e-006 -6.37821e-006 0.274021 -19.6371 69.1302 20.5072 8.12998 25.1254 -3.60632 -171.528 -1.86752 -1.24568 4.54188e-006 -4.6773e-006 -1.41071 -1.03297 -9.45913 0.213211 -1.35904e-006 7.65514e-007 0.0457508 16.331 64.2024 -16.8377 -8.12755 25.1031 3.64268 
54.09 101.252 18.1364 1.20077 -1.92017 -2.26753 -0.392261 -2.78152 0.255119 -0.773189 -1.56213 0.542363 -0.779589 0.0828315 0.555265 -1.02199 4.81148 -2.60036 2.34871 10.5576 -2.83899 18.1787 -12.5122 -9.28227 55.1865 25.5223 53.6371 -7.12135e-008 -1.58371e-006 -8.20782e-006 0.0499789 39.928 -1.94186 8.01991e-008 2.26519e-006 -3.00872 8.02967 -4.95142 0.697669 -26.1875 -12.9931 9.47137 -62.6491 24.8623 -22.122 1.06747e-005 -9.57252e-006 -5.13009e-006 -8.27737 45.0165 5.1282 -1.34734e-006 1.20896e-007 3 -8.03013 -4.95141 -0.697652 164.891 -1.05848 5.60429 180 7.01539e-015 178.89 -178.733 11.5128 179.211 2.80947e-006 -6.37821e-006 0.266477 -19.6288 69.1308 20.5057 8.13292 25.1673 -3.56017 -171.563 -2.04836 -1.15645 4.54188e-006 -4.6773e-006 -1.39938 -1.0103 -9.0301 0.199282 -1.35904e-006 7.65515e-007 0.050663 16.3677 64.2806 -16.8841 -8.13114 25.1537 3.58219 
54.0574 101.56 18.1912 1.18921 -1.93462 -2.23968 -0.402271 -2.77787 0.245618 -0.793535 -1.55483 0.524173 -0.799715 0.0901277 0.537417 -0.800441 4.6861 -2.64176 2.24163 10.6503 -2.83886 18.9178 -12.5122 -9.24967 55.2309 25.0639 53.1827 -7.12135e-008 -1.58371e-006 -8.20782e-006 0.0968611 39.6981 -1.97422 8.01991e-008 2.26519e-006 -3.00872 8.02967 -4.95142 0.697669 -26.2974 -12.9801 9.44962 -63.2031 24.4681 -21.964 1.06747e-005 -9.57252e-006 -5.13009e-006 -8.29597 44.9166 5.14085 -1.34734e-006 1.20896e-007 3 -8.03013 -4.95141 -0.697652 165.023 -1.22479 5.53172 180 7.01539e-015 178.891 -178.773 11.1601 179.235 2.80947e-006 -6.37821e-006 0.259019 -19.6202 69.1301 20.5034 8.13526 25.2014 -3.52261 -171.59 -2.20053 -1.08037 4.54188e-006 -4.6773e-006 -1.38827 -0.997241 -8.63502 0.186593 -1.35904e-006 7.65516e-007 0.0550121 16.4034 64.3563 -16.9295 -8.13396 25.1949 3.53296 
54.1195 101.802 18.2291 1.17323 -1.93304 -2.21532 -0.41085 -2.77687 0.235403 -0.811037 -1.5528 0.504425 -0.816979 0.0921529 0.517962 -0.590281 4.54841 -2.67776 2.13897 10.7502 -2.83643 19.6732 -12.5058 -9.20988 55.2726 24.5947 52.7287 -7.12135e-008 -1.58371e-006 -8.20782e-006 0.152965 39.5089 -2.00869 8.01991e-008 2.26519e-006 -3.00872 8.02967 -4.95142 0.697669 -26.4237 -12.9715 9.4321 -63.7292 24.0816 -21.8294 1.06747e-005 -9.57252e-006 -5.13009e-006 -8.30348 44.7853 5.14297 -1.34734e-006 1.20896e-007 3 -8.03013 -4.95141 -0.697652 165.16 -1.37149 5.45792 180 7.0154e-015 178.892 -178.814 10.819 179.258 2.80947e-006 -6.37821e-006 0.25162 -19.6117 69.1279 20.5003 8.13682 25.2242 -3.49736 -171.609 -2.32138 -1.01896 4.54188e-006 -4.6773e-006 -1.37752 -0.995039 -8.27551 0.175552 -1.35904e-006 7.65516e-007 0.0590811 16.4361 64.4257 -16.9716 -8.13582 25.2225 3.49985 
53.8557 102.089 18.2487 1.15222 -1.91334 -2.19535 -0.417778 -2.77905 0.224425 -0.825255 -1.55714 0.483 -0.830938 0.0878131 0.496777 -0.393146 4.3987 -2.70739 2.04124 10.8576 -2.83123 20.4434 -12.492 -9.16179 55.3158 24.1147 52.2739 -7.12135e-008 -1.58371e-006 -8.20782e-006 0.219745 39.368 -2.04577 8.01991e-008 2.26519e-006 -3.00872 8.02967 -4.95142 0.697669 -26.5676 -12.9676 9.41895 -64.2262 23.7039 -21.7184 1.06747e-005 -9.57252e-006 -5.13009e-006 -8.29906 44.6191 5.13359 -1.34734e-006 1.20896e-007 3 -8.03013 -4.95141 -0.697652 165.302 -1.49633 5.38286 180 7.0154e-015 178.892 -178.858 10.4894 179.28 2.80947e-006 -6.37821e-006 0.244254 -19.6031 69.1243 20.4964 8.1374 25.2326 -3.48812 -171.618 -2.40826 -0.973702 4.54188e-006 -4.6773e-006 -1.36729 -1.00496 -7.95321 0.16657 -1.35904e-006 7.65516e-007 0.0631531 16.464 64.485 -17.0082 -8.13649 25.2326 3.48774 
53.9567 102.329 18.2596 1.12483 -1.87711 -2.17921 -0.42339 -2.78352 0.212264 -0.836884 -1.56601 0.459089 -0.842277 0.0789427 0.47306 -0.200478 4.22796 -2.73102 1.94075 10.9775 -2.82192 21.2543 -12.4698 -9.10356 55.3341 23.618 51.8208 -7.12135e-008 -1.58371e-006 -8.20782e-006 0.298223 39.2652 -2.08487 8.01991e-008 2.26519e-006 -3.00872 8.02967 -4.95142 0.697669 -26.7232 -12.9733 9.41545 -64.6997 23.3433 -21.6359 1.06747e-005 -9.57252e-006 -5.13009e-006 -8.28047 44.4085 5.1104 -1.34734e-006 1.20896e-007 3 -8.03013 -4.95141 -0.697652 165.452 -1.60402 5.30584 180 7.0154e-015 178.893 -178.905 10.1684 179.303 2.80947e-006 -6.37821e-006 0.236759 -19.5926 69.1171 20.4898 8.13743 25.2326 -3.48813 -171.616 -2.45837 -0.947293 4.54188e-006 -4.6773e-006 -1.35716 -1.02773 -7.67841 0.158944 -1.35904e-006 7.65516e-007 0.0660377 16.4928 64.5461 -17.0462 -8.13649 25.2326 3.48774 
53.8511 102.595 18.3009 1.09076 -1.82796 -2.16542 -0.428188 -2.78895 0.198667 -0.846947 -1.57681 0.432232 -0.852015 0.0681512 0.446372 -0.00410389 4.02924 -2.75004 1.83125 11.1131 -2.80808 22.1266 -12.4396 -9.03515 55.3034 23.1001 51.3732 -7.12135e-008 -1.58371e-006 -8.20782e-006 0.387547 39.1843 -2.12504 8.01991e-008 2.26519e-006 -3.00872 8.02967 -4.95142 0.697669 -26.8856 -12.9923 9.42526 -65.1562 23.005 -21.5845 1.06747e-005 -9.57252e-006 -5.13009e-006 -8.24735 44.151 5.07306 -1.34734e-006 1.20896e-007 3 -8.03013 -4.95141 -0.697652 165.612 -1.70058 5.22641 180 7.0154e-015 178.893 -178.953 9.85342 179.325 2.80947e-006 -6.37821e-006 0.229049 -19.5786 69.1051 20.4791 8.13746 25.2326 -3.48815 -171.6 -2.47269 -0.939983 4.54188e-006 -4.6773e-006 -1.34663 -1.06246 -7.45678 0.151674 -1.35904e-006 7.65516e-007 0.0665346 16.5287 64.6217 -17.0935 -8.13649 25.2326 3.48774 
